<svg width="19" height="19" viewBox="0 0 19 19" fill="none" xmlns="http://www.w3.org/2000/svg">
<path d="M9.85574 2.67225C9.56554 2.38204 9.09499 2.38204 8.8048 2.67225L5.08912 6.38792C4.79891 6.67814 4.79891 7.14866 5.08912 7.43888C5.37933 7.72906 5.84986 7.72906 6.14007 7.43888L9.33027 4.24867L12.5205 7.43888C12.8107 7.72906 13.2812 7.72906 13.5714 7.43888C13.8616 7.14866 13.8616 6.67814 13.5714 6.38792L9.85574 2.67225Z" fill="black"/>
<path d="M6.14007 10.8466C5.84986 10.5564 5.37933 10.5564 5.08912 10.8466C4.79891 11.1367 4.79891 11.6073 5.08912 11.8975L8.8048 15.6132C9.09499 15.9034 9.56554 15.9034 9.85574 15.6132L13.5714 11.8975C13.8616 11.6073 13.8616 11.1367 13.5714 10.8466C13.2812 10.5564 12.8107 10.5564 12.5205 10.8466L9.33027 14.0368L6.14007 10.8466Z" fill="black"/>
</svg>
