<svg width="17" height="18" viewBox="0 0 17 18" fill="none" xmlns="http://www.w3.org/2000/svg">
<g clip-path="url(#clip0_303_3746)">
<path d="M8.50002 10.9196C9.11057 10.9196 9.69611 10.6771 10.1278 10.2453C10.5596 9.81361 10.8021 9.22806 10.8021 8.61751C10.8021 8.00696 10.5596 7.42142 10.1278 6.98969C9.69611 6.55797 9.11057 6.31543 8.50002 6.31543C7.88947 6.31543 7.30393 6.55797 6.8722 6.98969C6.44048 7.42142 6.19794 8.00696 6.19794 8.61751C6.19794 9.22806 6.44048 9.81361 6.8722 10.2453C7.30393 10.6771 7.88947 10.9196 8.50002 10.9196Z" stroke="black" stroke-width="1.30451" stroke-linecap="round" stroke-linejoin="round"/>
<path d="M14.3489 7.38584L13.5071 5.35234L14.6389 4.01329L13.1042 2.47857L11.7728 3.61657L9.69558 2.76249L9.21751 0.943848H7.71809L7.23311 2.78628L5.20344 3.64189L3.89586 2.47857L2.36114 4.01329L3.47611 5.3861L2.64736 7.42498L0.826416 7.8501V9.38482L2.66885 9.88744L3.52446 11.9171L2.36114 13.2216L3.89586 14.7563L5.2702 13.636L7.26995 14.4586L7.73267 16.2911H9.26739L9.73088 14.4594L11.7651 13.6168C12.1043 13.8593 13.1042 14.7563 13.1042 14.7563L14.6389 13.2216L13.5002 11.8787L14.3427 9.8437L16.1736 9.36794V7.8501L14.3489 7.38584Z" stroke="black" stroke-width="1.30451" stroke-linecap="round" stroke-linejoin="round"/>
</g>
<defs>
<clipPath id="clip0_303_3746">
<rect width="17" height="17" fill="white" transform="translate(0 0.117432)"/>
</clipPath>
</defs>
</svg>
