<svg width="17" height="12" viewBox="0 0 17 12" fill="none" xmlns="http://www.w3.org/2000/svg">
<g clip-path="url(#clip0_303_3701)">
<path d="M9.80084 7.01646L6.79154 10.4554C6.66147 10.604 6.50113 10.7231 6.32128 10.8047C6.14143 10.8863 5.94621 10.9285 5.74871 10.9285C5.55121 10.9285 5.35599 10.8863 5.17614 10.8047C4.99629 10.7231 4.83595 10.604 4.70588 10.4554L1.69658 7.01646C1.47554 6.76384 1.3537 6.43957 1.3537 6.1039C1.3537 5.76822 1.47554 5.44396 1.69658 5.19133L4.70588 1.75243C4.83595 1.60381 4.99629 1.48471 5.17614 1.40311C5.35599 1.32151 5.55121 1.2793 5.74871 1.2793C5.94621 1.2793 6.14143 1.32151 6.32128 1.40311C6.50113 1.48471 6.66147 1.60381 6.79154 1.75243L9.80084 5.19133C10.0219 5.44396 10.1437 5.76822 10.1437 6.1039C10.1437 6.43957 10.0219 6.76384 9.80084 7.01646Z" stroke="black" stroke-width="1.17795" stroke-linecap="round" stroke-linejoin="round"/>
<path d="M9.21326 10.9541L12.5974 7.00595C12.8129 6.75474 12.9313 6.43472 12.9313 6.10378C12.9313 5.77284 12.8129 5.45282 12.5974 5.20161L9.21326 1.25342" stroke="black" stroke-width="1.17795" stroke-linecap="round" stroke-linejoin="round"/>
<path d="M11.9849 10.9541L15.3691 7.00595C15.5845 6.75474 15.703 6.43472 15.703 6.10378C15.703 5.77284 15.5845 5.45282 15.3691 5.20161L11.9849 1.25342" stroke="black" stroke-width="1.17795" stroke-linecap="round" stroke-linejoin="round"/>
</g>
<defs>
<clipPath id="clip0_303_3701">
<rect width="15.9902" height="11.513" fill="white" transform="translate(0.525269 0.347412)"/>
</clipPath>
</defs>
</svg>
