<svg width="16" height="15" viewBox="0 0 16 15" fill="none" xmlns="http://www.w3.org/2000/svg">
<g clip-path="url(#clip0_303_3708)">
<path d="M0.742432 9.18557V5.04921C0.742432 3.95217 1.17823 2.90007 1.95394 2.12435C2.72966 1.34864 3.78176 0.912842 4.8788 0.912842H10.3939C11.491 0.912842 12.5431 1.34864 13.3188 2.12435C14.0945 2.90007 14.5303 3.95217 14.5303 5.04921V9.18557C14.5303 10.2826 14.0945 11.3347 13.3188 12.1104C12.5431 12.8861 11.491 13.3219 10.3939 13.3219H4.8788C3.78176 13.3219 2.72966 12.8861 1.95394 12.1104C1.17823 11.3347 0.742432 10.2826 0.742432 9.18557Z" stroke="black" stroke-width="1.17197"/>
<path d="M7.40679 4.35986L6.25757 7.11744H9.01514L7.86592 9.87501" stroke="black" stroke-width="1.17197" stroke-linecap="round" stroke-linejoin="round"/>
</g>
<defs>
<clipPath id="clip0_303_3708">
<rect width="15.2727" height="14" fill="white" transform="translate(0 0.117432)"/>
</clipPath>
</defs>
</svg>
