<svg width="17" height="17" viewBox="0 0 17 17" fill="none" xmlns="http://www.w3.org/2000/svg">
<g clip-path="url(#clip0_303_3695)">
<path d="M1.42157 13.4426V12.7764C1.42157 11.5394 1.91293 10.3532 2.78757 9.47855C3.6622 8.60391 4.84846 8.11255 6.08538 8.11255C7.3223 8.11255 8.50856 8.60391 9.38319 9.47855C10.2578 10.3532 10.7492 11.5394 10.7492 12.7764V13.4426" stroke="black" stroke-width="1.13264" stroke-linecap="round"/>
<path d="M9.41669 9.44506C9.41669 8.56155 9.76766 7.71422 10.3924 7.08948C11.0171 6.46474 11.8645 6.11377 12.748 6.11377C13.1855 6.11377 13.6186 6.19994 14.0228 6.36735C14.427 6.53476 14.7942 6.78014 15.1036 7.08948C15.4129 7.39882 15.6583 7.76606 15.8257 8.17023C15.9931 8.5744 16.0793 9.00759 16.0793 9.44506V9.77819" stroke="black" stroke-width="1.13264" stroke-linecap="round"/>
<path d="M6.08538 8.11254C6.7922 8.11254 7.47006 7.83176 7.96985 7.33197C8.46964 6.83218 8.75042 6.15432 8.75042 5.4475C8.75042 4.74069 8.46964 4.06283 7.96985 3.56304C7.47006 3.06325 6.7922 2.78247 6.08538 2.78247C5.37857 2.78247 4.70071 3.06325 4.20092 3.56304C3.70113 4.06283 3.42035 4.74069 3.42035 5.4475C3.42035 6.15432 3.70113 6.83218 4.20092 7.33197C4.70071 7.83176 5.37857 8.11254 6.08538 8.11254ZM12.748 6.11376C13.2781 6.11376 13.7865 5.90318 14.1613 5.52834C14.5362 5.15349 14.7467 4.6451 14.7467 4.11499C14.7467 3.58488 14.5362 3.07648 14.1613 2.70164C13.7865 2.3268 13.2781 2.11621 12.748 2.11621C12.2179 2.11621 11.7095 2.3268 11.3346 2.70164C10.9598 3.07648 10.7492 3.58488 10.7492 4.11499C10.7492 4.6451 10.9598 5.15349 11.3346 5.52834C11.7095 5.90318 12.2179 6.11376 12.748 6.11376Z" stroke="black" stroke-width="1.13264" stroke-linecap="round" stroke-linejoin="round"/>
</g>
<defs>
<clipPath id="clip0_303_3695">
<rect width="15.9902" height="15.9902" fill="white" transform="translate(0.75531 0.117432)"/>
</clipPath>
</defs>
</svg>
