<svg width="17" height="17" viewBox="0 0 17 17" fill="none" xmlns="http://www.w3.org/2000/svg">
<g clip-path="url(#clip0_303_3691)">
<path d="M4.58336 4.17547H12.4573M4.58336 8.11245H12.4573M4.58336 12.0494H9.30774M14.0321 1.02588H3.00857C2.59091 1.02588 2.19035 1.19179 1.89502 1.48713C1.59969 1.78246 1.43378 2.18301 1.43378 2.60067V13.6242C1.43378 14.0419 1.59969 14.4424 1.89502 14.7378C2.19035 15.0331 2.59091 15.199 3.00857 15.199H14.0321C14.4498 15.199 14.8503 15.0331 15.1457 14.7378C15.441 14.4424 15.6069 14.0419 15.6069 13.6242V2.60067C15.6069 2.18301 15.441 1.78246 15.1457 1.48713C14.8503 1.19179 14.4498 1.02588 14.0321 1.02588Z" stroke="black" stroke-width="1.33857" stroke-linecap="round" stroke-linejoin="round"/>
</g>
<defs>
<clipPath id="clip0_303_3691">
<rect width="15.9902" height="15.9902" fill="white" transform="translate(0.525269 0.117432)"/>
</clipPath>
</defs>
</svg>
